# xmcd
#
# Track frame offsets:
#	150
#	10409
#	20981
#	31534
#	41004
#	59683
#	75218
#	85443
#	94940
#	111070
#	124532
#	136535
#	148254
#	159506
#	170632
#	179435
#	192465
#	203083
#	214216
#	226319
#	238783
#	251807
#	264613
#	277823
#	287573
#	297650
#	312471
#	320602
#	329617
#	339707
#
# Disc length: 4710 seconds
#
# Revision: 0
# Processed by: cddbd v1.5.2PL0 Copyright (c) Steve Scherf et al.
# Submitted via: audiograbber 1.83.01
#
DISCID=cb12641e
DTITLE=Various Artist - Country Singles Vol. 1
DYEAR=1900
DGENRE=Country
TTITLE0=Crystal Gayle - Wrong Road Again
TTITLE1=Crystal Gayle - They Come Out At Night
TTITLE2=Earl Scott - Bottle In My Hand
TTITLE3=Earl Scott - Too Rough On Me
TTITLE4=Don Schlitz - The Gambler
TTITLE5=Don Schlitz - You Can't Take It With You
TTITLE6=Mary Kay James - It Amazes Me (Sweet Lovin' Time)
TTITLE7=Mary Kay James - Before I'm Fool Enough
TTITLE8=Doyle Holly - Just Another Cowboy Song
TTITLE9=Doyle Holly - January Bittersweet Jones
TTITLE10=Liz Anderson - Come Walk In My Shoes
TTITLE11=Liz Anderson - Thanks A Lot For Tryin' Anyway
TTITLE12=Faron Young - Wine Me Up
TTITLE13=Faron Young - That's Where My Baby Feels At Home
TTITLE14=Joe Carson - Helpless
TTITLE15=Joe Carson - The Last Song (I'm Ever Gonna Sing)
TTITLE16=Norma Jean - It Wasn't God Who Made Honky Tonk Angels
TTITLE17=Norma Jean - Pursuing Happiness
TTITLE18=Lefty Frizzell - Railroad Lady
TTITLE19=Lefty Frizzell - If I Had Half The Sense (A Fool Was Born With)
TTITLE20=Mickey Gilley - I Overlooked An Orchid
TTITLE21=Mickey Gilley - Swinging Doors
TTITLE22=Willis Brothers - My Ramblin' Boy
TTITLE23=Willis Brothers - Alcohol And # 2 Diesel
TTITLE24=Tenny Turner  - The Same Old Me
TTITLE25=Tenny Turner - Where Are You Tonight Rosie
TTITLE26=Larry Steele - How About It Young Lady
TTITLE27=Larry Steele - Three Men On A Mountain
TTITLE28=Luke The Drifter, Jr - Book Of Memories
TTITLE29=Luke The Drifter, Jr - Be Careful Of Stones That You Throw
EXTD=
EXTT0=
EXTT1=
EXTT2=
EXTT3=
EXTT4=
EXTT5=
EXTT6=
EXTT7=
EXTT8=
EXTT9=
EXTT10=
EXTT11=
EXTT12=
EXTT13=
EXTT14=
EXTT15=
EXTT16=
EXTT17=
EXTT18=
EXTT19=
EXTT20=
EXTT21=
EXTT22=
EXTT23=
EXTT24=
EXTT25=
EXTT26=
EXTT27=
EXTT28=
EXTT29=
PLAYORDER=
